<?xml version="1.0" standalone="no"?><!DOCTYPE svg PUBLIC "-//W3C//DTD SVG 1.1//EN" "http://www.w3.org/Graphics/SVG/1.1/DTD/svg11.dtd"><svg t="1764652823901" class="icon" viewBox="0 0 1024 1024" version="1.1" xmlns="http://www.w3.org/2000/svg" p-id="3521" xmlns:xlink="http://www.w3.org/1999/xlink" width="48" height="48"><path d="M619.946667 437.610667c-7.210667 7.210667-14.656 14.037333-22.293334 20.522666a44.778667 44.778667 0 0 1-7.168 54.058667l-32.597333 32.512c6.4-18.453333 6.4-38.613333 0.085333-57.066667-9.877333 6.4-19.925333 12.330667-30.208 17.706667l-41.408-41.557333c5.418667-10.304 11.392-20.373333 17.813334-30.229334a87.722667 87.722667 0 0 0-57.216-0.192l32.618666-32.490666a44.778667 44.778667 0 0 1 54.144-6.933334 380.096 380.096 0 0 1 183.018667-118.741333 380.032 380.032 0 0 1-96.768 162.410667M498.816 128L128 128.512v371.882667c108.352 28.117333 225.642667 19.861333 332.970667-24.384l47.701333 47.936 1.408 1.514666c0 0.021333 0.682667 0.426667 5.12 4.906667-48.298667 116.8-53.504 247.722667-15.936 363.882667C722.773333 893.738667 896 722.624 896 511.189333 895.594667 300.245333 726.912 128 498.816 128" fill="#2B85FB" p-id="3522"></path></svg>